<?xml version="1.0" encoding="utf-8" ?><svg xmlns="http://www.w3.org/2000/svg" xmlns:xlink="http://www.w3.org/1999/xlink" width="1024" height="1024" viewBox="0 0 1024 1024"><path fill="#E1E1E1" d="M0 0L1024 0L1024 1024L0 1024L0 0ZM772.301 434.205C760.311 435.314 749.363 439.595 741.446 449.056C726.829 466.525 725.017 497.14 743.08 513.175C754.147 523 779.752 523.347 783.98 538.565C785.948 545.647 777.144 554.078 770.331 553.06C760.429 553.373 750.847 549.997 743.535 543.694C742.66 542.934 741.802 542.153 740.962 541.353C736.539 549.534 730.756 560.795 725.96 568.562C740.389 581.194 749.987 584.97 769.365 586.41C784.614 586.411 797.724 583.612 808.638 572.669C825.922 555.337 827.25 523.199 809.115 505.967C803.868 500.573 797.785 497.655 791.121 494.478C783.443 490.817 764.812 488.991 764.859 477.771C764.893 469.494 773.566 466.678 780.548 467.333C791.296 468.341 798.319 472.845 806.935 478.692C808.546 465.869 809.475 457.024 812.295 444.356C799.686 438.779 786.527 432.668 772.301 434.205ZM163.092 434.697C116.209 439.843 91.4607 476.435 96.8483 522.147C98.9733 541.58 108.809 559.346 124.149 571.462C163.619 602.139 233.981 584.126 242.5 530.569L212.75 530.486L205.248 530.494C194.077 550.003 172.881 557.871 152.574 547.198C132.401 536.595 128.859 504.728 139.626 486.529C154.81 460.866 192.896 463.563 204.498 490.93C216.51 490.972 230.334 491.188 242.266 490.682C239.205 477.438 235.49 467.758 226.231 457.522C210.29 439.9 186.432 432.596 163.092 434.697ZM551.903 434.691C505.249 440.749 484.271 479.373 489.676 523.726C495.161 568.737 532.108 591.674 575.633 585.674C594.342 583.224 611.269 573.322 622.573 558.214C634.572 542.328 638.319 526.003 638.676 506.534L571.25 506.478L563.125 506.496L563.084 531.466C574.138 531.468 585.505 531.339 596.534 531.494C592.821 540.83 587.739 547.47 578.23 551.249C559.806 558.573 536.677 551.591 529.31 532.204C521.107 510.619 524.87 479.43 548.726 469.709C563.839 463.618 586.446 469.417 592.843 485.526C593.283 486.66 593.633 487.827 593.889 489.016L632.916 489.042C629.694 471.491 619.483 456 604.624 446.12C590.617 436.626 568.395 432.375 551.903 434.691ZM819.785 437.141C819.708 448.302 819.731 459.464 819.854 470.625C828.402 470.842 836.954 470.893 845.504 470.776L845.496 581.844L882.211 581.702L882.358 553.25C882.48 525.789 882.36 498.328 881.998 470.869L910.882 470.872L910.944 437.199C880.922 437.133 849.747 436.665 819.785 437.141ZM249.862 437.445L249.727 582.391L323.349 582.433C324.012 576.002 323.619 555.708 323.398 548.488C311.137 548.348 298.707 548.485 286.502 548.276L286.507 437.459C274.292 437.342 262.077 437.338 249.862 437.445ZM322.476 437.501L322.406 508.088C322.39 529.85 319.338 552.64 336.564 570.055C347.032 580.637 357.404 582.7 371.939 582.704C385.906 582.583 399.874 582.566 413.841 582.652C423.532 582.711 445.582 583.483 453.788 581.548C460.717 579.936 467.047 576.39 472.04 571.321C479.603 563.639 482.801 554.07 482.768 543.41C482.716 526.737 474.382 516.476 459.393 509.928C467.6 507.107 473.76 501.018 477.391 493.211C477.832 492.266 478.234 491.302 478.596 490.324C481.86 479.548 481.636 467.669 476.242 457.572C471.466 448.631 463.06 442.498 453.447 439.607C440.278 435.647 409.266 437.389 394.046 437.461L393.943 502.015C393.932 509.082 394.262 528.904 393.238 534.821C392.549 538.911 390.575 542.676 387.603 545.569C378.3 554.574 360.862 551.449 359.696 537.849C358.72 526.467 359.096 514.156 359.083 502.668L359.023 437.492L322.476 437.501ZM647.441 437.465L647.37 582.034L721.674 582.121C721.818 571.268 721.865 560.414 721.815 549.56L697.18 549.616C694.016 549.621 686.155 549.848 683.444 549.252C682.856 548.093 682.998 547.965 683.042 546.625L683 525.93L718.768 526.029C718.981 515.24 718.926 504.448 718.602 493.662C707.13 493.685 694.645 493.949 683.252 493.677C683.121 485.711 683.094 477.743 683.169 469.776C696.071 469.905 708.975 469.815 721.875 469.506L721.996 437.497L647.441 437.465Z"/><path d="M740.962 541.353C741.802 542.153 742.66 542.934 743.535 543.694C750.847 549.997 760.429 553.373 770.331 553.06C777.144 554.078 785.948 545.647 783.98 538.565C779.752 523.347 754.147 523 743.08 513.175C725.017 497.14 726.829 466.525 741.446 449.056C749.363 439.595 760.311 435.314 772.301 434.205C786.527 432.668 799.686 438.779 812.295 444.356C809.475 457.024 808.546 465.869 806.935 478.692C798.319 472.845 791.296 468.341 780.548 467.333C773.566 466.678 764.893 469.494 764.859 477.771C764.812 488.991 783.443 490.817 791.121 494.478C797.785 497.655 803.868 500.573 809.115 505.967C827.25 523.199 825.922 555.337 808.638 572.669C797.724 583.612 784.614 586.411 769.365 586.41C749.987 584.97 740.389 581.194 725.96 568.562C730.756 560.795 736.539 549.534 740.962 541.353Z"/><path d="M242.5 530.569C233.981 584.126 163.619 602.139 124.149 571.462C108.809 559.346 98.9733 541.58 96.8483 522.147C91.4607 476.435 116.209 439.843 163.092 434.697C186.432 432.596 210.29 439.9 226.231 457.522C235.49 467.758 239.205 477.438 242.266 490.682C230.334 491.188 216.51 490.972 204.498 490.93C192.896 463.563 154.81 460.866 139.626 486.529C128.859 504.728 132.401 536.595 152.574 547.198C172.881 557.871 194.077 550.003 205.248 530.494L212.75 530.486L242.5 530.569Z"/><path d="M638.676 506.534C638.319 526.003 634.572 542.328 622.573 558.214C611.269 573.322 594.342 583.224 575.633 585.674C532.108 591.674 495.161 568.737 489.676 523.726C484.271 479.373 505.249 440.749 551.903 434.691C568.395 432.375 590.617 436.626 604.624 446.12C619.483 456 629.694 471.491 632.916 489.042L593.889 489.016C593.633 487.827 593.283 486.66 592.843 485.526C586.446 469.417 563.839 463.618 548.726 469.709C524.87 479.43 521.107 510.619 529.31 532.204C536.677 551.591 559.806 558.573 578.23 551.249C587.739 547.47 592.821 540.83 596.534 531.494C585.505 531.339 574.138 531.468 563.084 531.466L563.125 506.496L571.25 506.478L638.676 506.534Z"/><path d="M819.854 470.625C819.731 459.464 819.708 448.302 819.785 437.141C849.747 436.665 880.922 437.133 910.944 437.199L910.882 470.872L881.998 470.869C882.36 498.328 882.48 525.789 882.358 553.25L882.211 581.702L845.496 581.844L845.504 470.776C836.954 470.893 828.402 470.842 819.854 470.625Z"/><path d="M249.727 582.391L249.862 437.445C262.077 437.338 274.292 437.342 286.507 437.459L286.502 548.276C298.707 548.485 311.137 548.348 323.398 548.488C323.619 555.708 324.012 576.002 323.349 582.433L249.727 582.391Z"/><path d="M459.393 509.928C474.382 516.476 482.716 526.737 482.768 543.41C482.801 554.07 479.603 563.639 472.04 571.321C467.047 576.39 460.717 579.936 453.788 581.548C445.582 583.483 423.532 582.711 413.841 582.652C399.874 582.566 385.906 582.583 371.939 582.704C357.404 582.7 347.032 580.637 336.564 570.055C319.338 552.64 322.39 529.85 322.406 508.088L322.476 437.501L359.023 437.492L359.083 502.668C359.096 514.156 358.72 526.467 359.696 537.849C360.862 551.449 378.3 554.574 387.603 545.569C390.575 542.676 392.549 538.911 393.238 534.821C394.262 528.904 393.932 509.082 393.943 502.015L394.046 437.461C409.266 437.389 440.278 435.647 453.447 439.607C463.06 442.498 471.466 448.631 476.242 457.572C481.636 467.669 481.86 479.548 478.596 490.324C478.234 491.302 477.832 492.266 477.391 493.211C473.76 501.018 467.6 507.107 459.393 509.928Z"/><path d="M647.37 582.034L647.441 437.465L721.996 437.497L721.875 469.506C708.975 469.815 696.071 469.905 683.169 469.776C683.094 477.743 683.121 485.711 683.252 493.677C694.645 493.949 707.13 493.685 718.602 493.662C718.926 504.448 718.981 515.24 718.768 526.029L683 525.93L683.042 546.625C682.998 547.965 682.856 548.093 683.444 549.252C686.155 549.848 694.016 549.621 697.18 549.616L721.815 549.56C721.865 560.414 721.818 571.268 721.674 582.121L647.37 582.034Z"/></svg>