<?xml version="1.0" encoding="utf-8" ?><svg xmlns="http://www.w3.org/2000/svg" xmlns:xlink="http://www.w3.org/1999/xlink" width="1024" height="1024" viewBox="0 0 1024 1024"><path transform="scale(2 2)" d="M189.442 105.272C190.399 96.7401 196.197 91.0628 204.492 89.4533C207.919 89.1633 216.524 89.4385 220.42 89.4426L289.172 89.4462C304.93 89.4455 318.323 85.9476 323.56 105.272C332.62 105.35 340.295 103.19 348.098 108.273C365.945 119.901 353.592 145.274 344.722 158.682C334.271 174.479 319.845 183.379 301.654 186.887C299.296 190.654 296.434 194.848 294.299 198.672C289.67 204.342 284.992 212.127 276.697 212.576C267.892 213.052 241.909 213.88 233.376 212.187C223.187 209.253 215.785 195.542 210.862 186.887C199.774 186.165 185.417 178.578 177.424 170.626C166.153 159.411 144.373 125.47 159.922 110.491C165.718 104.908 171.286 105.258 178.688 105.257L189.442 105.272ZM207.978 99.5924C195.073 100.4 199.672 114.937 201.123 123.271C205.014 145.613 212.009 167.665 223.299 187.408C230.817 200.508 231.544 202.706 245.48 202.688L258.145 202.664C278.834 202.63 277.89 205.271 289.221 186.887C297.873 170.218 317.643 119.222 313.14 105.775C310.351 97.4455 298.567 99.5773 291.692 99.5809L207.978 99.5924ZM330.757 114.906C328.322 114.94 325.998 114.968 323.56 114.906C319.076 138.572 314.449 153.092 306.339 175.417C311.361 173.877 313.877 172.788 318.358 170.09C330.916 161.467 339.182 150.464 344.702 136.359C350.24 122.209 346.372 114.219 330.757 114.906ZM172.633 115.481C166.428 116.378 163.865 120.927 165.133 126.897C169.277 146.408 181.374 165.047 199.937 173.402C201.875 174.223 203.312 174.765 205.313 175.417C198.046 154.043 193.097 138.381 189.442 115.481C184.004 115.478 178.027 115.35 172.633 115.481Z"/><path transform="scale(2 2)" d="M369.265 213.757C369.592 208.003 368.225 178.471 370.212 175.937C372.375 173.179 385.574 171.909 388.995 171.3L434.367 163.084C438.375 162.344 443.387 161.27 447.33 160.85C455.342 161.864 452.084 173.615 451.658 179.803L450.177 201.443C449.577 210.065 449.283 218.709 448.391 227.308C447.667 235.348 437.211 234.713 430.287 235.912L407.749 240.012C407.865 249.566 407.621 255.45 401.972 263.727C391.48 279.097 371.298 280.34 356.844 270.097C335.617 252.968 343.178 222.507 369.265 213.757ZM440.226 172.582L399.047 180.194C392.975 181.306 385.555 182.871 379.581 183.677L379.581 213.757C384.536 214.456 388.868 215.747 392.885 218.846C397.445 221.164 401.902 225.725 404.309 230.194C415.59 228.132 427.317 226.312 438.501 224.107L440.835 189.921C441.038 186.829 443.279 172.071 440.226 172.582ZM375.703 224.026C364 224.39 354.817 234.187 355.211 245.888C355.604 257.59 365.424 266.748 377.125 266.325C388.783 265.904 397.902 256.126 397.51 244.466C397.118 232.807 387.363 223.664 375.703 224.026Z"/><path transform="scale(2 2)" d="M104.299 243.504C95.2126 240.922 69.1533 238.45 65.9007 236.327C63.4786 234.746 63.2929 223.419 63.0513 220.741L58.9628 177.265C58.5076 172.462 57.473 167.168 63.4131 165.804C79.0107 167.801 95.414 170.745 111.027 173.19L128.688 176.08C144.715 178.631 142.534 177.446 142.538 192.737L142.527 214.428C170.14 222.494 174.691 250.427 155.392 270.097C154.447 270.482 151.143 272.509 149.935 273.132C129.375 283.913 101.879 267.65 104.299 243.504ZM69.34 176.992C70.2074 191.894 74.8384 213.88 74.1709 227.743C85.2736 229.485 95.924 231.059 107.064 232.548C110.287 226.213 112.872 222.942 118.651 218.846C123.965 215.698 126.274 214.867 132.359 213.757L132.359 186.887C111.639 184.331 89.97 180.331 69.34 176.992ZM135.238 224.114C123.595 224.398 114.395 234.083 114.709 245.725C115.023 257.368 124.731 266.543 136.373 266.199C147.972 265.857 157.106 256.191 156.794 244.591C156.481 232.991 146.839 223.832 135.238 224.114Z"/><path transform="scale(2 2)" d="M372.697 243.504C376.339 240.631 379.727 236.241 383.312 234.255C388.248 234.088 391.287 239.075 388.374 242.628C383.103 249.056 375.699 260.064 368.377 253.696C362.748 248.701 357.824 242.577 368.377 240.619C370.259 241.284 371.215 242.22 372.697 243.504Z"/><path transform="scale(2 2)" d="M260.128 324.426C236.659 326.725 215.78 309.539 213.526 286.066C211.271 262.593 228.496 241.746 251.974 239.535C275.389 237.331 296.168 254.5 298.417 277.911C300.665 301.322 283.535 322.133 260.128 324.426ZM253.381 249.902C235.648 251.365 222.453 266.918 223.898 284.653C225.344 302.387 240.884 315.598 258.62 314.17C276.381 312.739 289.613 297.173 288.166 279.414C286.718 261.655 271.139 248.437 253.381 249.902Z"/><path transform="scale(2 2)" d="M262.303 347.321C244.286 347.189 207.502 346.937 199.858 367.167C194.826 380.484 193.435 395.201 193.505 409.34C193.519 412.098 194.445 418.903 192.769 420.92C187.329 427.466 183.25 419.632 183.102 413.142C181.811 356.605 194.036 337.89 251.441 337.169C269.441 336.253 301.707 339.115 315.542 351.798C327.424 362.691 330.315 389.366 330.725 404.812C330.833 408.898 331.587 417.983 329.322 421.378C327.308 423.779 321.342 422.888 320.684 419.812C319.87 416.004 320.548 411.073 320.384 407.164C318.365 359.198 310.961 350.342 262.303 347.321Z"/><path transform="scale(2 2)" d="M217.561 422.771C215.173 422.843 212.686 422.104 211.864 419.603C210.412 415.185 209.559 384.296 217.561 382.064C220.887 382.227 221.908 382.97 223.493 385.84C223.554 388.753 222.978 392.523 222.626 395.823C221.752 404.014 224.747 420.567 217.561 422.771Z"/><path transform="scale(2 2)" d="M298.261 422.771C296.286 422.813 292.471 421.687 292.351 419.399C291.798 408.889 291.559 398.507 290.251 388.029C289.842 384.749 291.062 383.003 294.299 382.064C296.513 382.054 298.524 382.204 299.779 384.337C301.925 387.987 303.489 415.948 302.036 419.592C301.365 421.273 299.828 422.089 298.261 422.771Z"/></svg>