<svg xmlns="http://www.w3.org/2000/svg" xmlns:xlink="http://www.w3.org/1999/xlink" width="1024" zoomAndPan="magnify" viewBox="0 0 768 767.999994" height="1024" preserveAspectRatio="xMidYMid meet" version="1.2"><g id="930494a640"><path style=" stroke:none;fill-rule:nonzero;fill:#e2e8f0;fill-opacity:1;" d="M 221.230469 194.746094 C 221.160156 177.21875 220.992188 160.511719 242.074219 157.617188 C 266.144531 155.042969 267.730469 177.660156 267.671875 194.746094 L 361.113281 194.746094 C 361.027344 184.027344 359.332031 172.929688 367.488281 164.644531 C 376.5625 155.417969 390.898438 155.054688 400.199219 164.140625 C 408.691406 172.433594 407.210938 183.921875 407.210938 194.746094 L 501 194.746094 C 500.921875 184.339844 499.3125 172.777344 507.308594 164.753906 C 516.679688 155.351562 531.507812 155.195312 540.925781 164.632812 C 549.507812 173.234375 547.714844 183.660156 547.636719 194.746094 L 574.976562 194.726562 C 620.578125 194.714844 629.269531 209.449219 629.222656 254.984375 L 629.230469 547.164062 C 629.234375 573.105469 631.027344 597.308594 599.867188 607.207031 C 596.066406 608.207031 591.433594 608.628906 587.503906 608.636719 L 191.671875 608.675781 C 163.027344 608.683594 138.898438 601.648438 138.683594 567.949219 L 138.710938 244.242188 C 138.761719 203.351562 156.460938 194.6875 194.378906 194.71875 Z M 242.074219 172.933594 C 233.578125 177.550781 236.234375 184.714844 236.246094 194.039062 L 236.292969 223.933594 C 240.507812 224.410156 242.015625 224.632812 246.28125 223.933594 L 252.496094 223.933594 L 252.515625 195.226562 C 252.515625 186.476562 255.28125 171.226562 242.074219 172.933594 Z M 381.867188 172.933594 C 371.46875 177.730469 376.222656 211.972656 376.238281 223.933594 L 391.609375 223.933594 L 391.625 195.542969 C 391.621094 186.75 394.6875 172.242188 381.867188 172.933594 Z M 522.839844 172.933594 C 511.164062 178.066406 516.449219 211.175781 516.46875 223.933594 C 519.722656 223.925781 523.066406 223.875 526.3125 223.933594 L 532.496094 223.933594 L 532.527344 195.074219 C 532.527344 186.59375 535.300781 172.261719 522.839844 172.933594 Z M 355.777344 209.613281 L 267.671875 209.613281 C 267.707031 217.328125 271.164062 238.527344 260.675781 239.5625 C 250.660156 239.945312 240.492188 239.242188 230.445312 239.8125 C 217.25 240.5625 221.226562 218.710938 221.230469 209.613281 L 193.65625 209.585938 C 152.289062 209.546875 153.703125 221.636719 153.707031 259.078125 L 153.730469 311.773438 L 613.921875 311.773438 L 613.945312 259.136719 C 613.945312 250.109375 614.53125 238.878906 613.109375 230.175781 C 608.625 202.757812 567.660156 210.007812 547.636719 209.613281 C 547.28125 247.027344 548.089844 238.761719 512.679688 239.523438 C 496.210938 239.878906 501.5 221.601562 501 209.613281 L 407.210938 209.613281 C 407.375 246.609375 408.363281 238.679688 371.863281 239.421875 C 356.71875 239.730469 361.050781 220.835938 361.113281 209.613281 Z M 311.902344 326.953125 L 153.730469 326.953125 L 153.71875 547.628906 C 153.714844 592.769531 155.925781 593.449219 205.019531 593.445312 L 456.5625 593.4375 L 578.148438 593.453125 C 597.082031 593.460938 614.160156 590.976562 613.988281 567.183594 L 613.921875 326.953125 Z M 311.902344 326.953125 "/><path style=" stroke:none;fill-rule:nonzero;fill:#e2e8f0;fill-opacity:1;" d="M 397.691406 387.328125 C 403.148438 381.945312 410.632812 371.210938 418.363281 369.808594 C 422.757812 369.511719 427.453125 372.929688 426.683594 376.929688 C 425.433594 383.464844 412.199219 394.023438 407.210938 398.054688 C 436.847656 417.226562 423.574219 431.726562 414.894531 424.996094 C 409.492188 420.816406 402.289062 413.507812 397.691406 408.511719 C 392.285156 413.289062 383.597656 423.699219 378.082031 425.703125 C 369.132812 427.683594 365.871094 418.25 371.984375 412.203125 C 376.863281 407.371094 381.628906 402.640625 386.769531 398.054688 C 383.160156 394.167969 369.0625 382.085938 368.9375 377.71875 C 368.832031 373.976562 371.351562 369.652344 375.425781 369.574219 C 382.078125 369.445312 393.019531 382.632812 397.691406 387.328125 Z M 397.691406 387.328125 "/><path style=" stroke:none;fill-rule:nonzero;fill:#e2e8f0;fill-opacity:1;" d="M 229.324219 398.054688 C 223.410156 392.664062 201.238281 374.960938 218.300781 369.808594 C 225.046875 369.835938 235.347656 382.660156 240.238281 387.328125 C 246.691406 381.738281 251.753906 374.089844 259.226562 370.332031 C 264.976562 367.4375 271.308594 375.71875 268.675781 379.863281 C 264.320312 386.726562 257.136719 390.878906 252.496094 398.054688 C 257.265625 405.082031 279.519531 419.5625 262.84375 425.703125 C 255.710938 426.128906 245.328125 413.527344 240.238281 408.511719 C 234.148438 414.105469 222.4375 430.738281 214.359375 423.878906 C 205.894531 416.6875 223.785156 403.355469 229.324219 398.054688 Z M 229.324219 398.054688 "/><path style=" stroke:none;fill-rule:nonzero;fill:#e2e8f0;fill-opacity:1;" d="M 536.984375 398.054688 C 530.203125 391.5625 509.804688 376.6875 525.046875 369.808594 C 531.714844 369.144531 542.808594 382.539062 547.636719 387.328125 C 550.058594 383.753906 563.808594 369.121094 567.878906 369.886719 C 587.644531 373.621094 563.765625 392.421875 558.011719 398.054688 C 563.363281 404.410156 585.46875 418.90625 570.085938 425.703125 C 562.75 427.382812 552.054688 413.710938 547.636719 408.511719 C 544.058594 411.488281 530.546875 426.601562 527.101562 425.871094 C 506.953125 421.613281 530.90625 403.691406 536.984375 398.054688 Z M 536.984375 398.054688 "/><path style=" stroke:none;fill-rule:nonzero;fill:#e2e8f0;fill-opacity:1;" d="M 448.367188 500.167969 C 445.488281 500.449219 439.863281 500.191406 436.734375 500.1875 L 346.53125 500.117188 C 345.078125 499.941406 340.3125 500.101562 339.101562 499.359375 C 332.058594 495.046875 333.921875 487.351562 340.992188 484.808594 C 347.332031 484.515625 355.820312 484.796875 362.375 484.796875 L 404.839844 484.804688 C 416.523438 484.808594 436.492188 484.382812 448.542969 485.175781 C 453.957031 485.53125 457.019531 495.753906 448.367188 500.167969 Z M 448.367188 500.167969 "/><path style=" stroke:none;fill-rule:nonzero;fill:#e2e8f0;fill-opacity:1;" d="M 240.238281 512.597656 C 243.816406 508.183594 255.238281 495.949219 260.351562 494.273438 C 283.339844 495.199219 255.3125 519.0625 250.8125 523.421875 C 256.554688 529.449219 263.339844 534.683594 268.449219 541.105469 C 271.628906 545.101562 266.046875 552.855469 261.6875 551.972656 C 254.421875 550.503906 245.449219 539.347656 240.238281 534.007812 C 234.460938 539.03125 228.195312 546.738281 222.421875 551.253906 C 221.65625 551.503906 219.414062 552.132812 218.769531 551.964844 C 200.089844 547.089844 225.339844 526.757812 229.324219 523.421875 C 224.75 518.820312 213.0625 509.132812 212.035156 502.566406 C 211.304688 497.871094 218.355469 492.113281 223.308594 496.140625 C 229.378906 501.078125 234.402344 507.175781 240.238281 512.597656 Z M 240.238281 512.597656 "/><path style=" stroke:none;fill-rule:nonzero;fill:#e2e8f0;fill-opacity:1;" d="M 446.960938 547.960938 L 354.917969 547.976562 C 350.503906 548.011719 346.402344 548.101562 341.761719 547.988281 C 333.183594 547.777344 331.480469 534.335938 342.304688 532.601562 C 353.261719 532.441406 447.425781 531.234375 450.28125 533.445312 C 457.410156 538.964844 454.03125 545.726562 446.960938 547.960938 Z M 446.960938 547.960938 "/></g></svg>