<?xml version="1.0" encoding="utf-8" ?><svg xmlns="http://www.w3.org/2000/svg" xmlns:xlink="http://www.w3.org/1999/xlink" width="1024" height="1024" viewBox="0 0 1024 1024"><path transform="scale(2 2)" d="M147.487 129.83C147.439 118.145 147.328 107.007 161.384 105.079C177.43 103.363 178.488 118.44 178.449 129.83L240.741 129.83C240.684 122.684 239.555 115.287 244.991 109.762C251.042 103.612 260.599 103.37 266.799 109.426C272.46 114.955 271.475 122.614 271.473 129.83L333.999 129.83C333.948 122.893 332.876 115.184 338.207 109.835C344.452 103.569 354.339 103.463 360.618 109.756C366.339 115.49 365.143 122.441 365.092 129.83L383.318 129.819C413.72 129.811 419.513 139.633 419.482 169.989L419.488 364.776C419.489 382.071 420.685 398.205 399.911 404.805C397.377 405.472 394.288 405.753 391.668 405.759L127.781 405.785C108.685 405.789 92.5998 401.098 92.4548 378.634L92.4728 162.829C92.5071 135.567 104.308 129.791 129.587 129.813L147.487 129.83ZM161.384 115.289C155.718 118.366 157.489 123.142 157.497 129.359L157.529 149.29C160.338 149.606 161.344 149.756 164.188 149.29L168.33 149.29L168.345 130.151C168.345 124.317 170.187 114.152 161.384 115.289ZM254.578 115.289C247.647 118.488 250.815 141.314 250.826 149.29L257.847 149.29L261.074 149.29L261.083 130.362C261.082 124.501 263.126 114.829 254.578 115.289ZM348.559 115.289C340.776 118.71 344.3 140.784 344.312 149.29C346.481 149.283 348.711 149.249 350.875 149.29L354.997 149.29L355.017 130.05C355.018 124.395 356.868 114.842 348.559 115.289ZM237.186 139.743L178.449 139.743C178.471 144.885 180.776 159.018 173.784 159.709C167.108 159.964 160.329 159.496 153.63 159.876C144.833 160.375 147.485 145.807 147.487 139.743L129.104 139.725C101.527 139.699 102.47 147.759 102.472 172.719L102.486 207.848L294.688 207.848L409.282 207.848L409.298 172.759C409.298 166.739 409.688 159.253 408.739 153.451C405.75 135.173 378.441 140.005 365.092 139.743C364.855 164.684 365.392 159.174 341.786 159.683C330.808 159.92 334.333 147.735 333.999 139.743L271.473 139.743C271.584 164.407 272.243 159.12 247.908 159.615C237.812 159.82 240.701 147.225 240.741 139.743L237.186 139.743ZM207.936 217.968L102.486 217.968L102.479 365.085C102.476 395.179 103.951 395.634 136.68 395.631L304.375 395.626L385.433 395.636C398.055 395.641 409.44 393.985 409.326 378.122L409.282 217.968L207.936 217.968Z"/><path transform="scale(2 2)" d="M265.128 258.218C268.766 254.629 273.755 247.474 278.908 246.54C281.838 246.342 284.968 248.62 284.457 251.287C283.622 255.643 274.799 262.681 271.473 265.37C291.231 278.15 282.383 287.817 276.596 283.332C272.996 280.543 268.193 275.671 265.128 272.34C261.524 275.526 255.732 282.466 252.055 283.803C246.088 285.122 243.915 278.833 247.989 274.801C251.242 271.58 254.418 268.426 257.847 265.37C255.441 262.779 246.041 254.725 245.958 251.812C245.887 249.319 247.568 246.436 250.284 246.384C254.718 246.298 262.014 255.089 265.128 258.218Z"/><path transform="scale(2 2)" d="M152.883 265.37C148.94 261.777 134.159 249.974 145.534 246.54C150.032 246.556 156.899 255.107 160.16 258.218C164.46 254.493 167.836 249.393 172.817 246.887C176.65 244.958 180.872 250.48 179.118 253.243C176.214 257.819 171.424 260.585 168.33 265.37C171.511 270.054 186.346 279.708 175.23 283.803C170.475 284.085 163.551 275.684 160.16 272.34C156.099 276.07 148.292 287.158 142.907 282.586C137.263 277.792 149.19 268.904 152.883 265.37Z"/><path transform="scale(2 2)" d="M357.989 265.37C353.469 261.042 339.871 251.125 350.031 246.54C354.476 246.096 361.873 255.026 365.092 258.218C366.707 255.836 375.873 246.08 378.585 246.592C391.764 249.081 375.845 261.614 372.007 265.37C375.576 269.607 390.313 279.272 380.058 283.803C375.166 284.923 368.037 275.808 365.092 272.34C362.706 274.326 353.698 284.4 351.401 283.914C337.969 281.075 353.938 269.128 357.989 265.37Z"/><path transform="scale(2 2)" d="M298.912 333.446C296.993 333.634 293.241 333.462 291.156 333.458L231.021 333.412C230.053 333.294 226.875 333.402 226.068 332.907C221.372 330.032 222.614 324.901 227.329 323.205C231.555 323.01 237.213 323.197 241.583 323.199L269.893 323.204C277.682 323.205 290.994 322.922 299.028 323.45C302.639 323.688 304.679 330.502 298.912 333.446Z"/><path transform="scale(2 2)" d="M160.16 341.732C162.543 338.788 170.158 330.632 173.568 329.516C188.892 330.134 170.209 346.041 167.208 348.948C171.037 352.966 175.559 356.456 178.967 360.738C181.085 363.4 177.365 368.57 174.458 367.982C169.614 367.003 163.634 359.566 160.16 356.006C156.307 359.355 152.131 364.493 148.28 367.503C147.771 367.669 146.275 368.088 145.846 367.976C133.394 364.726 150.226 351.172 152.883 348.948C149.834 345.879 142.041 339.421 141.358 335.045C140.87 331.915 145.571 328.075 148.872 330.76C152.92 334.053 156.268 338.118 160.16 341.732Z"/><path transform="scale(2 2)" d="M297.973 365.307L236.611 365.318C233.67 365.34 230.935 365.402 227.842 365.326C222.123 365.185 220.986 356.223 228.203 355.069C235.507 354.96 298.284 354.155 300.187 355.629C304.939 359.31 302.688 363.819 297.973 365.307Z"/></svg>