<?xml version="1.0" encoding="utf-8" ?><svg xmlns="http://www.w3.org/2000/svg" xmlns:xlink="http://www.w3.org/1999/xlink" width="1024" height="1024" viewBox="0 0 1024 1024"><path transform="scale(2 2)" d="M443.277 256.205C435.594 257.186 437.041 251.441 438.091 246.678C449.977 192.251 416.117 137.929 362.893 124.035C357.48 122.621 356.649 116.955 362.029 114.495C364.276 114.454 367.008 115.137 369.188 115.751C423.474 131.043 458.135 188.804 448.249 243.941C447.518 248.018 447.13 254.04 443.277 256.205Z"/><path transform="scale(2 2)" d="M408.821 244.774C403.356 245.274 402.414 242.144 403.286 237.379C408.899 206.707 392.148 173.861 362.881 162.145C359.36 160.506 355.223 160.064 351.668 158.599C346.586 156.507 347.531 151.492 352.07 149.277C354.196 149.247 356.208 149.689 358.255 150.233C394.265 159.799 417.52 198.147 413.353 234.469C412.915 238.285 413.024 243.337 408.821 244.774Z"/><path transform="scale(2 2)" d="M199.802 335.458L96.7796 335.479C82.843 335.496 64.7343 334.144 62.5035 315.717C61.5848 308.127 61.918 298.906 61.9223 291.21L61.9238 205.45C61.9244 187.161 58.6008 165.134 83.42 161.247C83.8488 161.215 83.687 161.219 84.1149 161.218L273.714 161.243C304.761 161.24 318.004 161.536 317.969 196.832L317.953 215.631C332.207 221.976 344.31 238.973 349.886 253.109C355.104 266.341 354.154 277.446 354.529 291.097C355.058 310.343 361.859 331.095 373.52 346.574C375.793 349.712 378.67 352.494 380.674 355.811C384.409 361.994 380.313 372.614 372.693 373.428C367.331 374 361.661 373.767 356.249 373.767L321.481 373.757C319.621 373.705 317.58 373.752 315.706 373.757C307.237 403.429 259.315 405.898 249.348 373.757L212.42 373.766C206.092 373.766 199.813 373.949 193.442 373.452C185.991 372.87 181.096 362.969 184.106 356.537C184.492 355.711 198.335 337.16 199.802 335.458ZM88.6002 171.037C69.4716 171.8 71.6657 184.826 71.6782 200L71.6828 283.546C71.6767 292.615 71.6461 301.636 71.7525 310.77C71.9427 327.084 86.6587 325.821 97.6886 325.813L203.647 325.8C208.197 314.855 210.859 302.183 211.175 290.332C211.831 265.726 211.2 263.456 221.252 241.293C234.26 221.905 253.919 206.55 278.265 206.123C277.741 191.316 288.747 193.879 288.357 206.123C294.784 206.536 302.38 208.265 308.403 210.723C308.413 204.782 309.106 187.726 307.728 182.679C303.578 167.481 285.734 171.019 273.802 171.032L137.239 171.038C121.19 171.038 104.611 171.257 88.6002 171.037ZM276.156 215.631C252.328 219.942 234.446 232.655 225.199 255.93C219.392 270.55 222.204 282.964 220.526 297.994C219.082 309.935 216.793 319.134 212.486 330.307L301.125 330.307L353.909 330.307C336.21 296.218 356.659 264.836 327.052 234.325C315.833 222.765 304.153 218.104 288.357 215.631C288.337 220.69 289.37 226.498 282.412 226.785C275.204 227.083 281.609 215.405 276.156 215.631ZM309.059 339.89L207.887 339.89C203.937 347.759 198.485 353.486 193.298 360.431C189.151 365.985 212.683 364.089 214.481 364.088L256.625 364.088L359.393 364.087C362.292 364.089 373.343 365.837 372.342 361.13C370.728 357.272 360.895 345.091 357.786 339.89L309.059 339.89ZM260.043 373.757C263.478 387.956 286.631 391.365 298.643 381.706C301.721 378.881 303.06 377.5 304.848 373.757L275.139 373.745C270.499 373.743 264.552 373.562 260.043 373.757Z"/><path transform="scale(2 2)" d="M373.5 234.729C366.077 235.116 367.255 229.317 367.637 224.55C368.908 208.701 357.269 196.073 341.921 193.91C337.731 193.319 336.245 187.117 341.785 184.505C361.576 183.387 379.006 206.083 377.469 225.661C377.165 229.543 377.572 232.844 373.5 234.729Z"/><path transform="scale(2 2)" d="M95.7319 212.999L95.7319 203.072L199.802 203.072L199.802 212.999L95.7319 212.999Z"/><path transform="scale(2 2)" d="M95.7319 238.669L95.7319 228.764L166.369 228.764L166.369 238.669L95.7319 238.669Z"/><path transform="scale(2 2)" d="M95.7319 264.539L95.7319 254.519L135.515 254.519L135.515 264.539L95.7319 264.539Z"/></svg>