<svg xmlns="http://www.w3.org/2000/svg" xmlns:xlink="http://www.w3.org/1999/xlink" width="1024" zoomAndPan="magnify" viewBox="0 0 768 767.999994" height="1024" preserveAspectRatio="xMidYMid meet" version="1.2"><g id="5942c71fc2"><path style=" stroke:none;fill-rule:nonzero;fill:#e2e8f0;fill-opacity:1;" d="M 664.914062 384.308594 C 653.390625 385.777344 655.5625 377.160156 657.136719 370.015625 C 674.964844 288.375 624.175781 206.894531 544.339844 186.050781 C 536.21875 183.929688 534.972656 175.433594 543.042969 171.742188 C 546.414062 171.679688 550.511719 172.707031 553.78125 173.625 C 635.210938 196.566406 687.203125 283.207031 672.375 365.910156 C 671.277344 372.027344 670.695312 381.058594 664.914062 384.308594 Z M 664.914062 384.308594 "/><path style=" stroke:none;fill-rule:nonzero;fill:#e2e8f0;fill-opacity:1;" d="M 613.230469 367.160156 C 605.035156 367.910156 603.621094 363.214844 604.929688 356.070312 C 613.347656 310.058594 588.222656 260.792969 544.320312 243.21875 C 539.039062 240.757812 532.835938 240.097656 527.503906 237.898438 C 519.878906 234.761719 521.296875 227.238281 528.105469 223.914062 C 531.292969 223.871094 534.3125 224.535156 537.382812 225.347656 C 591.398438 239.699219 626.28125 297.21875 620.03125 351.703125 C 619.371094 357.425781 619.535156 365.003906 613.230469 367.160156 Z M 613.230469 367.160156 "/><path style=" stroke:none;fill-rule:nonzero;fill:#e2e8f0;fill-opacity:1;" d="M 299.703125 503.1875 L 145.167969 503.21875 C 124.265625 503.242188 97.101562 501.214844 93.753906 473.574219 C 92.378906 462.191406 92.878906 448.359375 92.882812 436.816406 L 92.886719 308.175781 C 92.886719 280.742188 87.902344 247.699219 125.128906 241.871094 C 125.773438 241.824219 125.53125 241.828125 126.171875 241.828125 L 410.570312 241.863281 C 457.140625 241.859375 477.007812 242.304688 476.953125 295.246094 L 476.929688 323.445312 C 498.308594 332.964844 516.464844 358.460938 524.828125 379.664062 C 532.65625 399.511719 531.230469 416.167969 531.792969 436.644531 C 532.585938 465.515625 542.789062 496.640625 560.28125 519.859375 C 563.691406 524.566406 568.003906 528.742188 571.011719 533.714844 C 576.613281 542.992188 570.46875 558.921875 559.039062 560.140625 C 550.996094 561 542.492188 560.652344 534.375 560.652344 L 482.222656 560.636719 C 479.429688 560.558594 476.371094 560.628906 473.558594 560.636719 C 460.855469 605.144531 388.972656 608.847656 374.023438 560.636719 L 318.628906 560.648438 C 309.136719 560.648438 299.71875 560.921875 290.164062 560.179688 C 278.988281 559.304688 271.644531 544.453125 276.160156 534.804688 C 276.738281 533.566406 297.503906 505.738281 299.703125 503.1875 Z M 132.898438 256.554688 C 104.207031 257.699219 107.5 277.238281 107.515625 300 L 107.523438 425.320312 C 107.515625 438.921875 107.46875 452.453125 107.628906 466.15625 C 107.914062 490.625 129.988281 488.730469 146.53125 488.71875 L 305.46875 488.699219 C 312.296875 472.28125 316.289062 453.273438 316.761719 435.496094 C 317.746094 398.589844 316.800781 395.183594 331.878906 361.941406 C 351.390625 332.859375 380.878906 309.824219 417.398438 309.183594 C 416.613281 286.972656 433.121094 290.820312 432.535156 309.183594 C 442.175781 309.804688 453.570312 312.398438 462.605469 316.085938 C 462.621094 307.171875 463.660156 281.589844 461.59375 274.019531 C 455.367188 251.222656 428.601562 256.527344 410.703125 256.546875 L 205.859375 256.558594 C 181.785156 256.558594 156.917969 256.886719 132.898438 256.554688 Z M 414.234375 323.445312 C 378.492188 329.914062 351.667969 348.984375 337.796875 383.894531 C 329.089844 405.824219 333.304688 424.445312 330.789062 446.992188 C 328.621094 464.902344 325.191406 478.699219 318.730469 495.460938 L 530.863281 495.460938 C 504.316406 444.328125 534.988281 397.253906 490.578125 351.488281 C 473.75 334.148438 456.230469 327.15625 432.535156 323.445312 C 432.503906 331.035156 434.054688 339.746094 423.617188 340.175781 C 412.804688 340.625 422.414062 323.109375 414.234375 323.445312 Z M 463.589844 509.835938 L 311.832031 509.835938 C 305.90625 521.636719 297.726562 530.230469 289.945312 540.648438 C 283.726562 548.976562 319.023438 546.132812 321.722656 546.132812 L 384.9375 546.132812 L 539.089844 546.128906 C 543.4375 546.132812 560.015625 548.753906 558.511719 541.695312 C 556.09375 535.90625 541.34375 517.636719 536.679688 509.835938 Z M 390.066406 560.636719 C 395.21875 581.933594 429.945312 587.046875 447.964844 572.558594 C 452.582031 568.320312 454.589844 566.25 457.273438 560.636719 L 412.707031 560.617188 C 405.75 560.613281 396.828125 560.34375 390.066406 560.636719 Z M 390.066406 560.636719 "/><path style=" stroke:none;fill-rule:nonzero;fill:#e2e8f0;fill-opacity:1;" d="M 560.25 352.09375 C 549.117188 352.675781 550.882812 343.976562 551.457031 336.824219 C 553.363281 313.050781 535.902344 294.109375 512.882812 290.863281 C 506.597656 289.976562 504.367188 280.675781 512.675781 276.757812 C 542.363281 275.082031 568.507812 309.125 566.203125 338.492188 C 565.746094 344.316406 566.359375 349.265625 560.25 352.09375 Z M 560.25 352.09375 "/><path style=" stroke:none;fill-rule:nonzero;fill:#e2e8f0;fill-opacity:1;" d="M 143.597656 304.609375 L 299.703125 304.609375 L 299.703125 319.5 L 143.597656 319.5 Z M 143.597656 304.609375 "/><path style=" stroke:none;fill-rule:nonzero;fill:#e2e8f0;fill-opacity:1;" d="M 143.597656 343.144531 L 249.554688 343.144531 L 249.554688 358.003906 L 143.597656 358.003906 Z M 143.597656 343.144531 "/><path style=" stroke:none;fill-rule:nonzero;fill:#e2e8f0;fill-opacity:1;" d="M 143.597656 381.777344 L 203.273438 381.777344 L 203.273438 396.808594 L 143.597656 396.808594 Z M 143.597656 381.777344 "/></g></svg>