<?xml version="1.0" encoding="utf-8" ?><svg xmlns="http://www.w3.org/2000/svg" xmlns:xlink="http://www.w3.org/1999/xlink" width="1024" height="1024" viewBox="0 0 1024 1024"><path transform="scale(2 2)" d="M255.734 327.234L255.723 362.929C255.721 374.692 257.559 387.281 248.422 396.374C242.222 402.544 236.213 404.389 227.69 404.419L110.846 404.47C99.9333 404.478 89.5416 405.445 81.1974 396.924C75.0011 390.597 73.2686 384.144 73.2673 375.551L73.269 131.607C73.3139 116.826 83.9634 107.462 98.4991 107.483L221.203 107.459C234.945 107.442 251.137 107.044 254.887 124.976C256.298 131.727 255.751 141.316 255.75 148.399L255.734 184.493C268.107 184.292 280.981 184.489 293.409 184.489L405.452 184.49C417.886 184.484 440.051 180.953 438.947 199.871L438.951 301.406C438.932 323.179 435.507 327.263 413.18 327.245L336.875 327.234L255.734 327.234ZM95.8592 117.684C80.3208 121.217 83.3353 134.325 83.3572 146.908L233.026 146.908L245.52 146.908L245.556 137.508C245.813 117.189 238.369 117.661 220.672 117.665L95.8592 117.684ZM83.3572 157.136L83.3572 353.442L245.52 353.442L245.52 327.234L239.155 327.234C227.356 327.304 212.921 329.137 212.864 312.104L212.969 208.57C212.926 196.484 212.33 184.319 228.339 184.37L245.52 184.493L245.52 157.136L98.8342 157.126C95.8158 157.123 85.9052 156.871 83.3572 157.136ZM350.436 194.465L243.351 194.463C221.63 194.467 222.707 190.864 222.832 212.508L242.679 212.496C246.174 212.496 250.029 212.296 253.478 212.737C259.026 213.447 258.951 222.074 253.521 222.559C250.484 222.83 247.042 222.555 243.951 222.546L222.832 222.537C222.847 227.665 223.056 234.21 222.832 239.241L416.875 239.241L428.714 239.241L428.714 222.537L283.349 222.56C277.45 222.301 277.134 212.878 283.418 212.588C286.71 212.436 289.997 212.509 293.293 212.494L428.714 212.508C428.735 209.086 429.378 196.13 427.373 195.455C422.564 193.835 403.474 194.461 398.197 194.46L350.436 194.465ZM222.832 249.308C222.23 250.105 222.829 260.324 222.832 262.172L222.818 297.15C222.804 319.239 219.78 317.2 239.829 317.157L407.695 317.154C412.269 317.155 422.937 317.832 426.512 315.605C430.172 311.924 428.733 303.491 428.72 298.584L428.714 249.308L222.832 249.308ZM85.3405 363.31C84.2693 363.401 84.1283 363.229 83.4218 363.769C82.5794 370.557 82.8034 382.521 86.7897 387.882C93.4341 396.818 106.363 394.33 116.429 394.324L221.864 394.335C228.377 394.346 233.741 395.138 239.155 390.719C247.84 383.322 245.476 373.389 245.52 363.31L85.3405 363.31Z"/><path transform="scale(2 2)" d="M159.229 208.104C159.225 203.62 159.742 202.109 164.192 200.765C168.672 201.549 169.222 203.956 169.72 208.104C182.091 210.449 195.955 226.234 191.099 238.444C190.07 241.032 186.684 241.923 184.446 240.423C178.701 237.232 185.461 227.166 172.442 219.731C163.887 214.845 153.186 219.097 148.735 227.541C142.45 239.465 152.427 249.856 165.127 250.362C192.3 249.52 206.693 290.931 169.72 302.98C169.817 307.161 169.908 308.778 166.025 310.957C160.155 312.769 159.214 307.306 159.229 302.98C138.559 297.681 131.344 271.899 141.79 270.897C147.399 270.359 146.908 276.76 147.731 280.378C151.427 294.304 169.275 297.33 177.998 286.565C187.854 274.403 178.18 260.753 162.455 260.599C130.476 260.285 128.96 211.743 159.229 208.104Z"/><path transform="scale(2 2)" d="M394.425 299.207L375.502 299.223C370.436 299.224 364.451 299.531 359.536 298.411C341.783 294.285 341.446 265.089 365.191 264.072L385.377 264.048C388.547 264.046 391.723 264.003 394.887 264.102C416.06 264.764 419.75 297.787 394.425 299.207ZM393.493 274.066C389.25 274.558 386.219 278.412 386.741 282.651C387.264 286.891 391.139 289.894 395.375 289.341C399.568 288.793 402.533 284.966 402.016 280.769C401.499 276.573 397.693 273.58 393.493 274.066ZM362.61 274.213C356.177 276.43 354.147 284.762 360.65 288.062C363.096 289.303 370.978 288.997 374.125 288.986L378.448 288.986C376.015 283.048 376.019 280.045 378.448 274.213C373.641 274.207 367.304 274.027 362.61 274.213Z"/></svg>