<svg xmlns="http://www.w3.org/2000/svg" xmlns:xlink="http://www.w3.org/1999/xlink" width="1024" zoomAndPan="magnify" viewBox="0 0 768 767.999994" height="1024" preserveAspectRatio="xMidYMid meet" version="1.2"><g id="0ddcde2c14"><path style=" stroke:none;fill-rule:nonzero;fill:#e2e8f0;fill-opacity:1;" d="M 383.601562 490.851562 L 383.585938 544.394531 C 383.582031 562.039062 386.339844 580.921875 372.632812 594.5625 C 363.332031 603.816406 354.320312 606.582031 341.535156 606.628906 L 166.269531 606.703125 C 149.898438 606.71875 134.3125 608.167969 121.796875 595.386719 C 112.5 585.894531 109.902344 576.214844 109.902344 563.328125 L 109.902344 197.410156 C 109.972656 175.238281 125.945312 161.191406 147.75 161.222656 L 331.804688 161.1875 C 352.417969 161.164062 376.707031 160.566406 382.332031 187.464844 C 384.445312 197.589844 383.625 211.972656 383.625 222.597656 L 383.601562 276.738281 C 402.160156 276.4375 421.472656 276.734375 440.113281 276.734375 L 608.179688 276.734375 C 626.828125 276.726562 660.078125 271.429688 658.421875 299.804688 L 658.425781 452.109375 C 658.398438 484.769531 653.261719 490.894531 619.769531 490.867188 L 505.3125 490.851562 Z M 143.789062 176.527344 C 120.480469 181.824219 125.003906 201.488281 125.035156 220.363281 L 368.28125 220.363281 L 368.335938 206.261719 C 368.71875 175.785156 357.554688 176.492188 331.007812 176.496094 Z M 125.035156 235.703125 L 125.035156 530.164062 L 368.28125 530.164062 L 368.28125 490.851562 L 358.734375 490.851562 C 341.035156 490.957031 319.382812 493.707031 319.296875 468.15625 L 319.453125 312.855469 C 319.390625 294.726562 318.496094 276.476562 342.507812 276.554688 L 368.28125 276.738281 L 368.28125 235.703125 L 148.25 235.6875 C 143.722656 235.683594 128.859375 235.304688 125.035156 235.703125 Z M 525.652344 291.699219 L 365.027344 291.695312 C 332.445312 291.699219 334.058594 286.296875 334.246094 318.761719 L 364.019531 318.742188 C 369.261719 318.742188 375.042969 318.445312 380.21875 319.105469 C 388.539062 320.171875 388.425781 333.109375 380.28125 333.839844 C 375.726562 334.246094 370.5625 333.832031 365.925781 333.820312 L 334.246094 333.804688 C 334.269531 341.496094 334.585938 351.316406 334.246094 358.863281 L 643.070312 358.863281 L 643.070312 333.804688 L 425.023438 333.839844 C 416.175781 333.453125 415.699219 319.316406 425.128906 318.882812 C 430.066406 318.652344 434.996094 318.761719 439.941406 318.742188 L 643.070312 318.761719 C 643.101562 313.628906 644.066406 294.195312 641.058594 293.183594 C 633.847656 290.753906 605.210938 291.691406 597.296875 291.691406 Z M 334.246094 373.960938 C 333.34375 375.15625 334.242188 390.484375 334.246094 393.257812 L 334.226562 445.726562 C 334.207031 478.859375 329.671875 475.800781 359.742188 475.734375 L 611.542969 475.730469 C 618.402344 475.734375 634.40625 476.746094 639.769531 473.40625 C 645.257812 467.886719 643.097656 455.238281 643.078125 447.875 L 643.070312 373.960938 Z M 128.011719 544.964844 C 126.402344 545.101562 126.191406 544.84375 125.132812 545.652344 C 123.867188 555.835938 124.207031 573.78125 130.183594 581.824219 C 140.152344 595.226562 159.542969 591.496094 174.644531 591.484375 L 332.796875 591.503906 C 342.566406 591.519531 350.613281 592.707031 358.734375 586.078125 C 371.761719 574.984375 368.214844 560.082031 368.28125 544.964844 Z M 128.011719 544.964844 "/><path style=" stroke:none;fill-rule:nonzero;fill:#e2e8f0;fill-opacity:1;" d="M 238.84375 312.15625 C 238.835938 305.429688 239.613281 303.164062 246.289062 301.148438 C 253.007812 302.324219 253.832031 305.933594 254.578125 312.15625 C 273.136719 315.671875 293.933594 339.351562 286.648438 357.664062 C 285.105469 361.546875 280.027344 362.882812 276.667969 360.632812 C 268.050781 355.847656 278.191406 340.75 258.664062 329.597656 C 245.832031 322.265625 229.777344 328.644531 223.101562 341.3125 C 213.675781 359.199219 228.640625 374.785156 247.691406 375.542969 C 288.449219 374.28125 310.039062 436.398438 254.578125 454.46875 C 254.726562 460.742188 254.863281 463.167969 249.039062 466.433594 C 240.234375 469.152344 238.820312 460.960938 238.84375 454.46875 C 207.839844 446.523438 197.015625 407.847656 212.683594 406.34375 C 221.097656 405.539062 220.363281 415.140625 221.597656 420.566406 C 227.140625 441.457031 253.914062 445.996094 266.996094 429.847656 C 281.78125 411.605469 267.269531 391.128906 243.683594 390.898438 C 195.714844 390.425781 193.441406 317.613281 238.84375 312.15625 Z M 238.84375 312.15625 "/><path style=" stroke:none;fill-rule:nonzero;fill:#e2e8f0;fill-opacity:1;" d="M 591.636719 448.808594 L 563.253906 448.835938 C 555.652344 448.835938 546.675781 449.296875 539.304688 447.617188 C 512.675781 441.425781 512.167969 397.632812 547.785156 396.109375 L 578.066406 396.070312 C 582.820312 396.070312 587.585938 396.003906 592.332031 396.152344 C 624.089844 397.144531 629.625 446.679688 591.636719 448.808594 Z M 590.238281 411.097656 C 583.875 411.835938 579.328125 417.617188 580.113281 423.976562 C 580.894531 430.335938 586.707031 434.839844 593.0625 434.011719 C 599.351562 433.191406 603.800781 427.449219 603.023438 421.152344 C 602.25 414.859375 596.539062 410.371094 590.238281 411.097656 Z M 543.914062 411.320312 C 534.265625 414.644531 531.21875 427.144531 540.976562 432.09375 C 544.644531 433.953125 556.46875 433.496094 561.1875 433.480469 L 567.671875 433.480469 C 564.023438 424.570312 564.027344 420.066406 567.671875 411.320312 C 560.460938 411.308594 550.957031 411.039062 543.914062 411.320312 Z M 543.914062 411.320312 "/></g></svg>