<?xml version="1.0" encoding="utf-8" ?><svg xmlns="http://www.w3.org/2000/svg" xmlns:xlink="http://www.w3.org/1999/xlink" width="1024" height="1024" viewBox="0 0 1024 1024"><path transform="scale(2 2)" d="M223.804 387.639L248.456 387.639C261.848 387.627 259.376 397.871 250.685 397.885L101.634 397.855C90.7318 397.853 77.2458 401.627 77.0798 387.207C76.9448 375.481 76.9881 363.671 76.9868 351.903L76.988 197.343C76.9863 190.942 76.0929 147.986 77.3626 145.144C78.5944 142.386 103.648 118.293 107.805 114.163L144.362 77.3281C145.151 76.5217 146.235 76.1543 147.287 75.7957C150.766 75.6171 155.558 75.7761 159.168 75.7822L331.731 75.7879C349.604 75.7404 350.704 75.0509 350.711 93.1846L350.74 247.015C350.697 253.036 340.961 253.338 340.799 247.341C340.636 241.3 340.704 235.25 340.707 229.211L340.713 86.0095L153.759 86.0095L153.769 111.29C153.767 146.436 145.386 151.942 111.151 151.948L87.1954 151.944L87.1954 387.639L133.985 387.639L133.985 383.398L133.989 346.37C133.987 339.145 130.791 323.54 140.408 323.803C150.282 324.074 160.393 323.624 170.226 324.016C176.037 324.247 175.083 330.681 175.033 334.867L174.968 387.639C177.341 387.709 179.918 387.649 182.307 387.639L182.307 297.777C164.611 297.554 159.388 296.92 173.919 282.507L187.506 269.157C194.599 262.188 200.373 250.885 208.461 258.834C218.979 269.171 229.673 279.412 239.977 289.955C241.535 291.451 240.969 295.056 239.348 296.272C236.057 298.743 227.872 297.802 223.804 297.777L223.804 387.639ZM143.666 93.4533C127.1 108.919 111.566 126.257 95.1124 141.475C95.2698 141.748 95.2064 141.7 95.2994 141.745C102.176 141.626 109.051 141.836 115.957 141.764C133.686 141.446 143.838 140.772 143.672 119.835C143.616 112.841 144.491 99.586 143.666 93.4533ZM203.243 267.93L190.177 280.808C188.191 282.793 185.006 285.855 183.246 287.879C195.432 288.418 192.669 293.694 192.645 304.262L192.629 387.639L203.747 387.639L213.744 387.639L213.733 304.527C213.734 294.043 210.99 287.117 223.804 287.879C221.137 285.814 219.277 283.697 216.897 281.327L207.686 272.214C207.075 271.608 203.744 268.221 203.243 267.93ZM144.122 334.241L144.122 387.639L164.814 387.639L164.814 334.241L144.122 334.241Z"/><path transform="scale(2 2)" d="M294.063 153.006L216.694 153.01C212.974 153.008 209.364 153.036 205.57 152.917C197.978 153.18 196.134 144.092 205.03 142.81C210.071 142.642 216.009 142.802 221.143 142.801L278.847 142.803C282.511 142.804 293.141 142.015 296.258 143.369C300.337 145.142 300.464 152.101 294.063 153.006Z"/><path transform="scale(2 2)" d="M295.723 189.362C289.346 189.629 280.901 189.367 274.38 189.366L212.651 189.384C209.541 189.394 205.669 189.588 202.708 189.181C199.397 188.726 196.897 181.904 203.243 179.175C207.596 178.956 213.774 179.174 218.271 179.174L278.265 179.165C286.523 179.164 299.92 175.829 298.678 186.44C297.741 187.881 297.223 188.536 295.723 189.362Z"/><path transform="scale(2 2)" d="M295.723 225.434C293.774 225.648 290.002 225.455 287.882 225.445L225.601 225.44C220.916 225.44 201.938 227.142 199.864 222.592C198.372 219.319 199.252 216.841 202.455 215.232C207.978 214.94 216.255 215.226 222.059 215.226L284.477 215.228C287.377 215.228 296.756 213.992 298.338 217.172C299.991 220.494 299.019 223.692 295.723 225.434Z"/><path transform="scale(2 2)" d="M356.128 435.854C309.218 439.276 268.411 404.034 264.968 357.125C261.525 310.217 296.749 269.394 343.656 265.93C390.592 262.464 431.446 297.715 434.892 344.653C438.337 391.591 403.068 432.429 356.128 435.854ZM345.489 276.098C304.182 278.546 272.683 314.019 275.136 355.325C277.589 396.631 313.066 428.126 354.372 425.667C395.67 423.209 427.158 387.74 424.705 346.442C422.252 305.143 386.787 273.651 345.489 276.098Z"/><path transform="scale(2 2)" d="M345.503 312.483C345.532 307.562 344.094 301.364 348.988 298.783C357.439 297.937 355.78 306.143 355.245 311.733C361.495 312.432 365.925 312.826 370.732 317.553C375.73 322.594 380.929 340.056 370.864 338.91C362.627 337.972 369.464 322.068 358.438 322.527C352.744 322.764 341.236 320.819 336.775 324.566C332.373 328.263 331.63 337.218 335.41 341.405C342.726 349.509 360.487 339.339 371.508 351.636C383.197 364.678 374.836 389.003 355.245 387.639C355.076 393.127 357.283 400.037 350.708 402.312C343.411 402.689 344.935 392.506 344.962 387.639C322.939 389.013 317.164 360.32 328.547 362.148C339.317 363.877 322.782 377.467 352.888 377.945C360.605 378.067 366.373 374.832 366.567 366.472C366.048 353.267 355.674 355.004 345.998 354.955C316.059 356.074 313.102 311.679 345.503 312.483Z"/></svg>