<svg xmlns="http://www.w3.org/2000/svg" xmlns:xlink="http://www.w3.org/1999/xlink" width="1024" zoomAndPan="magnify" viewBox="0 0 768 767.999994" height="1024" preserveAspectRatio="xMidYMid meet" version="1.2"><g id="e2b4f02d61"><path style=" stroke:none;fill-rule:nonzero;fill:#e2e8f0;fill-opacity:1;" d="M 335.707031 581.457031 L 372.683594 581.457031 C 392.773438 581.441406 389.0625 596.804688 376.027344 596.828125 L 152.449219 596.78125 C 136.097656 596.78125 115.867188 602.441406 115.621094 580.808594 C 115.417969 563.222656 115.480469 545.507812 115.480469 527.855469 L 115.480469 296.015625 C 115.480469 286.414062 114.140625 221.980469 116.042969 217.714844 C 117.890625 213.578125 155.472656 177.441406 161.707031 171.246094 L 216.542969 115.992188 C 217.726562 114.78125 219.351562 114.230469 220.929688 113.695312 C 226.148438 113.425781 233.335938 113.664062 238.753906 113.671875 L 497.597656 113.683594 C 524.40625 113.609375 526.054688 112.578125 526.066406 139.777344 L 526.109375 370.523438 C 526.046875 379.554688 511.441406 380.007812 511.199219 371.011719 C 510.953125 361.949219 511.054688 352.875 511.058594 343.816406 L 511.070312 129.015625 L 230.636719 129.015625 L 230.652344 166.933594 C 230.652344 219.652344 218.078125 227.914062 166.726562 227.921875 L 130.792969 227.914062 L 130.792969 581.457031 L 200.976562 581.457031 L 200.976562 575.097656 L 200.984375 519.554688 C 200.980469 508.71875 196.1875 485.308594 210.613281 485.703125 C 225.421875 486.109375 240.589844 485.4375 255.339844 486.023438 C 264.054688 486.371094 262.625 496.023438 262.550781 502.300781 L 262.453125 581.457031 C 266.011719 581.5625 269.878906 581.472656 273.460938 581.457031 L 273.460938 446.664062 C 246.917969 446.332031 239.082031 445.378906 260.878906 423.761719 L 281.257812 403.734375 C 291.898438 393.28125 300.558594 376.328125 312.691406 388.25 C 328.46875 403.757812 344.507812 419.117188 359.964844 434.933594 C 362.300781 437.175781 361.453125 442.585938 359.023438 444.40625 C 354.085938 448.113281 341.808594 446.703125 335.707031 446.664062 Z M 215.5 140.179688 C 190.648438 163.378906 167.347656 189.386719 142.667969 212.210938 C 142.90625 212.621094 142.808594 212.550781 142.949219 212.617188 C 153.265625 212.4375 163.578125 212.753906 173.933594 212.644531 C 200.527344 212.167969 215.757812 211.15625 215.507812 179.753906 C 215.425781 169.261719 216.738281 149.378906 215.5 140.179688 Z M 304.863281 401.894531 L 285.265625 421.210938 C 282.285156 424.191406 277.507812 428.78125 274.867188 431.820312 C 293.148438 432.628906 289.003906 440.539062 288.96875 456.394531 L 288.945312 581.457031 L 320.617188 581.457031 L 320.597656 456.789062 C 320.601562 441.066406 316.484375 430.675781 335.707031 431.820312 C 331.707031 428.722656 328.914062 425.546875 325.34375 421.992188 L 311.527344 408.320312 C 310.613281 407.410156 305.617188 402.332031 304.863281 401.894531 Z M 216.183594 501.363281 L 216.183594 581.457031 L 247.222656 581.457031 L 247.222656 501.363281 Z M 216.183594 501.363281 "/><path style=" stroke:none;fill-rule:nonzero;fill:#e2e8f0;fill-opacity:1;" d="M 441.09375 229.507812 L 325.039062 229.515625 C 319.460938 229.511719 314.046875 229.554688 308.355469 229.375 C 296.96875 229.769531 294.199219 216.136719 307.546875 214.214844 C 315.105469 213.964844 324.011719 214.203125 331.714844 214.203125 L 418.269531 214.203125 C 423.765625 214.207031 439.710938 213.023438 444.386719 215.054688 C 450.503906 217.714844 450.695312 228.152344 441.09375 229.507812 Z M 441.09375 229.507812 "/><path style=" stroke:none;fill-rule:nonzero;fill:#e2e8f0;fill-opacity:1;" d="M 443.585938 284.042969 C 434.019531 284.445312 421.351562 284.050781 411.570312 284.050781 L 318.976562 284.074219 C 314.3125 284.089844 308.503906 284.382812 304.0625 283.773438 C 299.09375 283.089844 295.34375 272.855469 304.863281 268.761719 C 311.394531 268.433594 320.660156 268.761719 327.40625 268.761719 L 417.398438 268.746094 C 429.785156 268.746094 449.878906 263.742188 448.015625 279.660156 C 446.613281 281.820312 445.835938 282.804688 443.585938 284.042969 Z M 443.585938 284.042969 "/><path style=" stroke:none;fill-rule:nonzero;fill:#e2e8f0;fill-opacity:1;" d="M 443.585938 338.152344 C 440.660156 338.472656 435.003906 338.183594 431.824219 338.167969 L 338.402344 338.160156 C 331.375 338.160156 302.90625 340.714844 299.796875 333.886719 C 297.558594 328.976562 298.878906 325.261719 303.683594 322.847656 C 311.96875 322.410156 324.382812 322.839844 333.089844 322.839844 L 426.714844 322.84375 C 431.066406 322.84375 445.132812 320.988281 447.507812 325.757812 C 449.988281 330.742188 448.527344 335.539062 443.585938 338.152344 Z M 443.585938 338.152344 "/><path style=" stroke:none;fill-rule:nonzero;fill:#e2e8f0;fill-opacity:1;" d="M 534.191406 653.78125 C 463.828125 658.914062 402.617188 606.050781 397.453125 535.6875 C 392.289062 465.324219 445.125 404.089844 515.484375 398.894531 C 585.886719 393.695312 647.167969 446.574219 652.339844 516.980469 C 657.503906 587.386719 604.601562 648.644531 534.191406 653.78125 Z M 518.234375 414.148438 C 456.273438 417.820312 409.023438 471.027344 412.703125 532.988281 C 416.382812 594.945312 469.597656 642.1875 531.558594 638.5 C 593.503906 634.8125 640.738281 581.609375 637.058594 519.664062 C 633.378906 457.714844 580.179688 410.476562 518.234375 414.148438 Z M 518.234375 414.148438 "/><path style=" stroke:none;fill-rule:nonzero;fill:#e2e8f0;fill-opacity:1;" d="M 518.253906 468.722656 C 518.296875 461.34375 516.140625 452.046875 523.480469 448.175781 C 536.160156 446.90625 533.671875 459.214844 532.867188 467.597656 C 542.242188 468.648438 548.886719 469.238281 556.097656 476.328125 C 563.59375 483.890625 571.394531 510.085938 556.296875 508.363281 C 543.941406 506.957031 554.195312 483.101562 537.65625 483.789062 C 529.117188 484.144531 511.855469 481.226562 505.164062 486.847656 C 498.558594 492.394531 497.445312 505.828125 503.113281 512.109375 C 514.089844 524.261719 540.730469 509.007812 557.261719 527.453125 C 574.796875 547.015625 562.253906 583.503906 532.867188 581.457031 C 532.613281 589.691406 535.925781 600.054688 526.0625 603.46875 C 515.117188 604.035156 517.402344 588.757812 517.441406 581.457031 C 484.410156 583.519531 475.746094 540.480469 492.820312 543.222656 C 508.976562 545.816406 484.171875 566.199219 529.332031 566.917969 C 540.90625 567.101562 549.558594 562.246094 549.851562 549.707031 C 549.070312 529.902344 533.511719 532.507812 518.996094 532.433594 C 474.089844 534.109375 469.652344 467.519531 518.253906 468.722656 Z M 518.253906 468.722656 "/></g></svg>