<?xml version="1.0" encoding="utf-8" ?><svg xmlns="http://www.w3.org/2000/svg" xmlns:xlink="http://www.w3.org/1999/xlink" width="1024" height="1024" viewBox="0 0 1024 1024"><path transform="scale(2 2)" d="M162.13 275.45C107.866 276.779 62.7693 233.927 61.3283 179.666C59.8874 125.405 102.646 80.2191 156.904 78.6657C211.321 77.1078 256.668 120.019 258.113 174.44C259.559 228.86 216.553 274.118 162.13 275.45ZM156.228 90.0136C143.259 90.4142 125.073 94.7372 114.794 102.898C122.603 109.425 130.494 118.175 138.282 125.01C147.104 125.188 156.4 125.006 165.274 125.01C171.034 124.995 177.411 124.845 183.131 125.01C189.269 118.128 199.411 108.798 206.262 102.898C193.305 96.1415 171.407 87.1642 156.228 90.0136ZM105.161 109.431C84.6952 121.149 71.049 155.659 71.7367 178.153C77.1496 176.767 84.1171 174.319 89.5418 172.561C94.0317 171.016 105.376 166.819 109.5 166.001C115.04 154.113 123.321 141.817 128.101 130.452C125.29 127.707 107.289 110.164 105.161 109.431ZM214.949 109.431C207.54 116.582 199.596 124.512 191.875 131.253C197.03 142.132 205.136 155.81 211.368 166.001C216.569 168.041 225.587 170.173 229.809 172.561C236.301 173.486 241.167 176.422 247.216 177.125C247.649 152.44 235.286 124.152 214.949 109.431ZM138.282 136.005C133.686 142.529 123.172 161.849 120.009 169.754L132.687 189.26C135.714 193.871 139.25 198.845 141.906 203.606L177.653 203.606L179.716 200.636L192.369 181.959C195.085 178.017 198.302 173.709 200.877 169.754C194.898 158.531 188.183 147.233 181.98 136.005C167.434 136.313 152.805 135.388 138.282 136.005ZM111.239 177.125C99.6631 179.508 84.5589 185.846 72.6989 189.43C77.3754 212.823 84.9099 226.423 102.459 242.607C105.241 244.903 108.143 247.429 111.239 249.259C116.112 238.941 123.603 226.791 129.406 216.938C130.661 214.807 131.907 212.467 133.472 210.557C131.611 207.288 112.745 177.76 111.239 177.125ZM209.101 177.125C201.633 188.192 193.28 199.216 186.36 210.557C194.052 223.356 201.737 236.267 209.101 249.259C211.917 247.116 215.134 244.836 217.813 242.607C229.967 230.912 237.612 219.609 243.057 203.435C244.175 200.115 245.964 191.59 247.216 189.43C237.119 185.044 223.481 181.497 212.796 178.24C211.731 177.916 210.164 177.287 209.101 177.125ZM143.518 214.446C135.636 228.276 128.354 240.897 120.792 254.967C141.146 265.2 155.363 264.888 176.572 263.268C183.962 260.047 191.075 259.244 199.624 254.967C192.785 241.453 183.203 228.382 176.572 214.446L143.518 214.446Z"/><path transform="scale(2 2)" d="M306.506 127.575C302.299 130.002 297.658 133.077 293.446 135.594C286.09 139.99 281.683 130.543 286.547 126.978C290.481 124.094 306.599 113.394 311.304 111.531C319.653 111.357 317.504 124.025 317.509 129.954L317.512 163.384C317.513 166.012 317.608 168.705 317.372 171.299C316.815 177.429 307.271 177.718 306.645 171.421C306.398 168.937 306.472 166.641 306.477 164.17L306.506 151.012L306.506 127.575Z"/><path transform="scale(2 2)" d="M447.178 149.26C444.264 149.498 438.699 149.266 435.497 149.264L373.303 149.264C369.735 149.264 352.271 150.03 349.979 148.601C344.825 145.387 347.693 139.403 352.726 138.51C357.872 138.34 363.956 138.502 369.202 138.502L445.381 138.582C452.859 138.649 453.119 148.224 447.178 149.26Z"/><path transform="scale(2 2)" d="M295.76 244.559C295.738 246.754 295.918 249.735 294.794 251.645C293.849 253.746 289.361 254.717 287.677 253.473C279.126 247.159 288.05 231.638 301.136 230.273C314.67 229.6 328.965 235.937 322.698 251.952C320.157 258.445 305.816 274.285 301.136 281.755C305.656 281.736 318.844 280.7 321.95 283.735C325.186 286.896 322.657 291.882 318.628 292.503C315.417 292.997 311.841 292.665 308.58 292.659L289.558 292.647C279.193 289.134 289.758 278.721 293.192 274.279L305.245 258.389C307.707 255.173 317.073 246.218 311.1 242.237C307.895 240.1 298.575 240.178 295.76 244.559Z"/><path transform="scale(2 2)" d="M447.178 274.243C445.282 274.48 440.625 274.253 438.422 274.25L379.044 274.246C374.477 274.246 354.91 275.087 351.414 273.546C346.75 271.49 348.052 265.062 352.167 263.268C358.815 263.034 367.039 263.261 373.834 263.261L437.608 263.26C440.918 263.26 448.755 261.98 450.366 265.924C451.822 269.487 450.504 272.673 447.178 274.243Z"/><path transform="scale(2 2)" d="M427.916 343.951C423.087 344.163 416.427 343.959 411.448 343.958L85.1994 343.907C77.1278 343.747 76.1067 334.595 83.5864 333.29L426.343 333.268C434.059 333.221 435.229 342.445 427.916 343.951Z"/><path transform="scale(2 2)" d="M252.68 417.737C250.99 421.916 249.095 429.413 243.052 427.391C238.704 425.935 239.546 421.866 240.447 418.486C244.717 405.93 251.962 387.886 257.53 376.022C258.254 374.478 260.277 374.266 261.79 373.999C264.811 374.07 265.586 375.266 266.72 377.863C271.064 387.815 281.838 410.484 283.927 420.505C284.95 426.131 276.732 434.973 271.177 417.737L262.375 417.737L252.68 417.737ZM261.79 394.435C260.167 398.136 258.477 402.931 257.011 406.767L262.375 406.767L266.882 406.767C265.267 402.78 263.566 398.315 261.79 394.435Z"/><path transform="scale(2 2)" d="M167.018 397.53C170.126 395.655 185.017 394.368 184.832 401.164C184.624 408.826 186.671 415.231 181.579 421.942C175.427 430.05 158.536 429.825 150.875 424.409C143.503 418.904 145.652 407.354 145.272 399.243C144.664 386.266 145.337 375.192 161.165 373.999C165.374 373.979 169.194 373.875 173.743 374.27C186.488 375.377 188.988 396.043 177.777 392.269C174.367 391.284 175.909 385.71 172.037 385.301C168.566 384.935 160.011 384.459 157.176 386.352C155.424 388.89 156.119 410.659 156.228 414.229C158.823 418.012 174.419 422.227 174.281 407.924C167.774 407.66 161.17 404.556 167.018 397.53Z"/><path transform="scale(2 2)" d="M218.812 427.907C195.021 429.947 195.407 419.724 195.304 402.023C195.233 389.874 192.728 375.686 209.101 373.999C224.449 373.873 234.1 374.963 233.088 393.365C232.364 406.526 237.449 425.727 218.812 427.907ZM211.368 385.095C209.162 385.144 206.321 384.874 206.322 387.938C206.324 396.791 205.935 405.861 206.519 414.682C206.757 418.275 215.686 417.144 217.813 416.984C224.973 416.267 222.732 393.228 221.915 388.544C221.007 383.341 215.416 384.735 211.368 385.095Z"/><path transform="scale(2 2)" d="M319.813 427.907C313.137 427.92 294.081 430.804 291.815 423.461C290.931 420.597 291.013 386.174 291.458 380.138C291.671 377.251 292.653 374.758 295.76 373.999C304.966 374.521 302.312 383.422 302.295 391.066L302.283 416.984C306.574 416.988 318.727 416.191 321.954 417.881C326.887 420.464 324.232 426.65 319.813 427.907Z"/><path transform="scale(2 2)" d="M352.167 427.907C346.942 427.838 337.328 428.96 332.851 426.368C322.25 413.852 352.885 418.545 354.689 414.944C359.302 405.735 341.81 405.604 336.812 401.332C326.2 392.261 330.327 376.024 345.233 373.999C348.812 373.75 352.733 374.062 356.341 373.957C368.467 373.602 367.047 383.741 362.082 384.577C356.889 385.452 350.508 385.111 345.233 385.095C332.61 392.028 355.513 396.736 359.081 399.051C371.872 407.351 368.418 424.46 352.167 427.907Z"/></svg>