<svg xmlns="http://www.w3.org/2000/svg" xmlns:xlink="http://www.w3.org/1999/xlink" width="1024" zoomAndPan="magnify" viewBox="0 0 768 767.999994" height="1024" preserveAspectRatio="xMidYMid meet" version="1.2"><g id="3153e7cbe5"><path style=" stroke:none;fill-rule:nonzero;fill:#e2e8f0;fill-opacity:1;" d="M 243.195312 413.175781 C 161.800781 415.167969 94.152344 350.890625 91.992188 269.5 C 89.832031 188.109375 153.96875 120.328125 235.355469 118 C 316.980469 115.660156 385.003906 180.027344 387.167969 261.660156 C 389.339844 343.289062 324.828125 411.175781 243.195312 413.175781 Z M 234.34375 135.019531 C 214.886719 135.621094 187.609375 142.105469 172.191406 154.347656 C 183.90625 164.136719 195.742188 177.261719 207.421875 187.515625 C 220.65625 187.78125 234.601562 187.507812 247.910156 187.515625 C 256.550781 187.492188 266.117188 187.265625 274.695312 187.515625 C 283.902344 177.191406 299.117188 163.195312 309.394531 154.347656 C 289.957031 144.210938 257.109375 130.746094 234.34375 135.019531 Z M 157.742188 164.148438 C 127.042969 181.722656 106.574219 233.488281 107.605469 267.230469 C 115.722656 265.152344 126.175781 261.476562 134.3125 258.839844 C 141.046875 256.523438 158.0625 250.226562 164.25 249 C 172.558594 231.167969 184.980469 212.726562 192.152344 195.679688 C 187.933594 191.558594 160.933594 165.246094 157.742188 164.148438 Z M 322.421875 164.148438 C 311.308594 174.871094 299.394531 186.769531 287.8125 196.878906 C 295.546875 213.199219 307.703125 233.714844 317.050781 249 C 324.851562 252.0625 338.378906 255.257812 344.714844 258.839844 C 354.453125 260.230469 361.75 264.632812 370.824219 265.6875 C 371.472656 228.660156 352.929688 186.226562 322.421875 164.148438 Z M 207.421875 204.007812 C 200.527344 213.792969 184.757812 242.773438 180.011719 254.632812 L 199.03125 283.890625 C 203.570312 290.804688 208.875 298.265625 212.859375 305.410156 L 266.480469 305.410156 L 269.574219 300.953125 L 288.554688 272.9375 C 292.628906 267.027344 297.453125 260.5625 301.316406 254.632812 C 292.347656 237.796875 282.273438 220.847656 272.96875 204.007812 C 251.152344 204.46875 229.207031 203.082031 207.421875 204.007812 Z M 166.859375 265.6875 C 149.496094 269.261719 126.839844 278.769531 109.046875 284.144531 C 116.0625 319.234375 127.363281 339.632812 153.6875 363.910156 C 157.863281 367.355469 162.214844 371.144531 166.859375 373.886719 C 174.167969 358.410156 185.40625 340.1875 194.109375 325.40625 C 195.992188 322.210938 197.859375 318.699219 200.207031 315.835938 C 197.417969 310.933594 169.117188 266.640625 166.859375 265.6875 Z M 313.652344 265.6875 C 302.449219 282.289062 289.921875 298.824219 279.539062 315.835938 C 291.078125 335.035156 302.605469 354.402344 313.652344 373.886719 C 317.875 370.675781 322.699219 367.253906 326.71875 363.910156 C 344.949219 346.367188 356.417969 329.414062 364.585938 305.152344 C 366.261719 300.171875 368.945312 287.386719 370.824219 284.144531 C 355.679688 277.566406 335.222656 272.246094 319.195312 267.359375 C 317.597656 266.875 315.246094 265.929688 313.652344 265.6875 Z M 215.277344 321.667969 C 203.453125 342.414062 192.53125 361.34375 181.1875 382.449219 C 211.71875 397.800781 233.042969 397.332031 264.859375 394.902344 C 275.941406 390.070312 286.613281 388.867188 299.4375 382.449219 C 289.175781 362.179688 274.804688 342.574219 264.859375 321.667969 Z M 215.277344 321.667969 "/><path style=" stroke:none;fill-rule:nonzero;fill:#e2e8f0;fill-opacity:1;" d="M 459.757812 191.363281 C 453.449219 195.003906 446.488281 199.617188 440.167969 203.390625 C 429.136719 209.984375 422.523438 195.816406 429.820312 190.46875 C 435.722656 186.140625 459.898438 170.089844 466.957031 167.296875 C 479.480469 167.035156 476.257812 186.039062 476.261719 194.929688 L 476.269531 245.074219 C 476.269531 249.019531 476.410156 253.058594 476.058594 256.949219 C 475.222656 266.144531 460.90625 266.578125 459.96875 257.132812 C 459.597656 253.40625 459.707031 249.960938 459.714844 246.253906 L 459.757812 226.519531 Z M 459.757812 191.363281 "/><path style=" stroke:none;fill-rule:nonzero;fill:#e2e8f0;fill-opacity:1;" d="M 670.765625 223.890625 C 666.394531 224.246094 658.046875 223.898438 653.246094 223.894531 L 559.953125 223.894531 C 554.601562 223.894531 528.40625 225.046875 524.96875 222.902344 C 517.238281 218.082031 521.539062 209.105469 529.089844 207.765625 C 536.808594 207.511719 545.933594 207.753906 553.804688 207.753906 L 668.070312 207.871094 C 679.289062 207.972656 679.679688 222.335938 670.765625 223.890625 Z M 670.765625 223.890625 "/><path style=" stroke:none;fill-rule:nonzero;fill:#e2e8f0;fill-opacity:1;" d="M 443.640625 366.839844 C 443.605469 370.132812 443.878906 374.601562 442.191406 377.46875 C 440.773438 380.617188 434.042969 382.074219 431.515625 380.210938 C 418.6875 370.738281 432.074219 347.457031 451.703125 345.410156 C 472.003906 344.398438 493.449219 353.90625 484.046875 377.929688 C 480.234375 387.667969 458.722656 411.425781 451.703125 422.632812 C 458.484375 422.605469 478.265625 421.050781 482.925781 425.601562 C 487.777344 430.34375 483.984375 437.824219 477.941406 438.753906 C 473.125 439.496094 467.761719 438.996094 462.871094 438.988281 L 434.335938 438.96875 C 418.789062 433.699219 434.636719 418.082031 439.789062 411.417969 L 457.867188 387.582031 C 461.558594 382.757812 475.609375 369.328125 466.648438 363.355469 C 461.84375 360.148438 447.863281 360.265625 443.640625 366.839844 Z M 443.640625 366.839844 "/><path style=" stroke:none;fill-rule:nonzero;fill:#e2e8f0;fill-opacity:1;" d="M 670.765625 411.363281 C 667.921875 411.71875 660.9375 411.378906 657.632812 411.375 L 568.566406 411.367188 C 561.714844 411.367188 532.363281 412.628906 527.121094 410.320312 C 520.125 407.234375 522.078125 397.59375 528.25 394.902344 C 538.222656 394.550781 550.558594 394.890625 560.75 394.890625 L 656.410156 394.890625 C 661.378906 394.890625 673.132812 392.96875 675.550781 398.886719 C 677.734375 404.230469 675.757812 409.007812 670.765625 411.363281 Z M 670.765625 411.363281 "/><path style=" stroke:none;fill-rule:nonzero;fill:#e2e8f0;fill-opacity:1;" d="M 641.875 515.925781 C 634.628906 516.246094 624.640625 515.9375 617.171875 515.9375 L 127.800781 515.859375 C 115.691406 515.621094 114.160156 501.890625 125.378906 499.933594 L 639.515625 499.902344 C 651.089844 499.832031 652.84375 513.667969 641.875 515.925781 Z M 641.875 515.925781 "/><path style=" stroke:none;fill-rule:nonzero;fill:#e2e8f0;fill-opacity:1;" d="M 379.019531 626.605469 C 376.484375 632.875 373.640625 644.121094 364.578125 641.085938 C 358.054688 638.902344 359.320312 632.800781 360.671875 627.730469 C 367.074219 608.894531 377.941406 581.828125 386.296875 564.03125 C 387.382812 561.71875 390.414062 561.398438 392.683594 561 C 397.214844 561.105469 398.378906 562.898438 400.078125 566.792969 C 406.597656 581.722656 422.757812 615.726562 425.890625 630.757812 C 427.425781 639.195312 415.097656 652.460938 406.765625 626.605469 Z M 392.683594 591.652344 C 390.25 597.203125 387.714844 604.398438 385.515625 610.152344 L 400.324219 610.152344 C 397.902344 604.171875 395.347656 597.472656 392.683594 591.652344 Z M 392.683594 591.652344 "/><path style=" stroke:none;fill-rule:nonzero;fill:#e2e8f0;fill-opacity:1;" d="M 250.527344 596.296875 C 255.1875 593.484375 277.527344 591.550781 277.246094 601.746094 C 276.9375 613.238281 280.007812 622.847656 272.367188 632.914062 C 263.140625 645.074219 237.804688 644.738281 226.3125 636.613281 C 215.253906 628.355469 218.476562 611.03125 217.90625 598.863281 C 216.996094 579.398438 218.003906 562.789062 241.746094 561 C 248.0625 560.96875 253.789062 560.8125 260.613281 561.40625 C 279.730469 563.066406 283.480469 594.066406 266.664062 588.402344 C 261.550781 586.925781 263.863281 578.566406 258.054688 577.953125 C 252.847656 577.402344 240.015625 576.6875 235.765625 579.527344 C 233.136719 583.335938 234.179688 615.988281 234.34375 621.34375 C 238.234375 627.019531 261.628906 633.339844 261.421875 611.886719 C 251.660156 611.488281 241.753906 606.835938 250.527344 596.296875 Z M 250.527344 596.296875 "/><path style=" stroke:none;fill-rule:nonzero;fill:#e2e8f0;fill-opacity:1;" d="M 328.21875 641.859375 C 292.53125 644.921875 293.109375 629.585938 292.957031 603.035156 C 292.847656 584.8125 289.09375 563.527344 313.652344 561 C 336.671875 560.808594 351.148438 562.445312 349.632812 590.046875 C 348.546875 609.789062 356.171875 638.589844 328.21875 641.859375 Z M 317.050781 577.640625 C 313.742188 577.714844 309.480469 577.3125 309.484375 581.90625 C 309.484375 595.1875 308.902344 608.792969 309.777344 622.023438 C 310.136719 627.414062 323.527344 625.714844 326.71875 625.476562 C 337.460938 624.402344 334.097656 589.84375 332.871094 582.816406 C 331.511719 575.011719 323.125 577.101562 317.050781 577.640625 Z M 317.050781 577.640625 "/><path style=" stroke:none;fill-rule:nonzero;fill:#e2e8f0;fill-opacity:1;" d="M 479.71875 641.859375 C 469.707031 641.878906 441.121094 646.207031 437.722656 635.191406 C 436.394531 630.894531 436.519531 579.261719 437.1875 570.207031 C 437.507812 565.875 438.980469 562.136719 443.640625 561 C 457.449219 561.78125 453.46875 575.132812 453.441406 586.597656 L 453.425781 625.476562 C 459.859375 625.480469 478.089844 624.285156 482.929688 626.820312 C 490.332031 630.695312 486.347656 639.976562 479.71875 641.859375 Z M 479.71875 641.859375 "/><path style=" stroke:none;fill-rule:nonzero;fill:#e2e8f0;fill-opacity:1;" d="M 528.25 641.859375 C 520.414062 641.757812 505.992188 643.441406 499.277344 639.550781 C 483.375 620.777344 529.328125 627.816406 532.035156 622.414062 C 538.953125 608.601562 512.714844 608.40625 505.21875 601.996094 C 489.300781 588.390625 495.492188 564.035156 517.847656 561 C 523.21875 560.625 529.097656 561.09375 534.511719 560.933594 C 552.699219 560.402344 550.570312 575.613281 543.121094 576.867188 C 535.332031 578.179688 525.761719 577.667969 517.847656 577.640625 C 498.914062 588.042969 533.269531 595.105469 538.621094 598.578125 C 557.808594 611.027344 552.628906 636.691406 528.25 641.859375 Z M 528.25 641.859375 "/></g></svg>